<?xml version="1.0" encoding="UTF-8" ?>
<!DOCTYPE svg PUBLIC "-//W3C//DTD SVG 1.1//EN" "http://www.w3.org/Graphics/SVG/1.1/DTD/svg11.dtd">
<svg width="756pt" height="372pt" viewBox="0 0 756 372" version="1.1" xmlns="http://www.w3.org/2000/svg">
<g id="#ffffffff">
<path fill="#ffffff" opacity="1.00" d=" M 551.77 4.90 C 566.68 -2.67 586.18 -0.00 598.04 11.92 C 611.94 25.70 625.68 39.64 639.57 53.44 C 643.67 57.37 647.38 61.74 651.93 65.18 C 657.42 69.99 662.27 75.46 667.04 80.95 C 677.67 90.29 687.31 100.69 697.41 110.59 C 711.29 124.04 724.66 138.01 738.42 151.58 C 741.92 154.75 744.72 158.56 747.68 162.22 C 753.84 170.70 756.71 181.64 755.00 192.04 C 754.31 200.73 749.76 208.64 744.00 214.99 C 695.76 263.09 647.69 311.35 599.45 359.45 C 593.37 365.46 585.57 370.09 577.00 371.21 C 566.43 373.05 555.20 370.62 546.33 364.59 C 536.74 358.23 530.67 347.31 529.22 336.02 C 528.96 308.64 529.19 281.26 529.11 253.88 C 360.41 253.89 191.70 253.86 22.99 253.89 C 19.71 253.75 16.28 253.86 13.19 252.57 C 5.88 249.47 0.55 242.01 0.49 233.98 C 0.42 202.66 0.59 171.34 0.52 140.01 C 0.44 135.70 1.62 131.38 3.70 127.63 C 7.60 122.64 13.42 118.54 19.97 118.58 C 189.62 118.50 359.27 118.63 528.93 118.52 C 529.42 91.35 528.84 64.16 529.24 36.99 C 530.32 28.43 533.66 19.98 539.59 13.60 C 543.49 10.48 546.99 6.73 551.77 4.90 Z" />
</g>
</svg>
