<?xml version="1.0" encoding="UTF-8" ?>
<!DOCTYPE svg PUBLIC "-//W3C//DTD SVG 1.1//EN" "http://www.w3.org/Graphics/SVG/1.1/DTD/svg11.dtd">
<svg width="168pt" height="16pt" viewBox="0 0 168 16" version="1.1" xmlns="http://www.w3.org/2000/svg">
<g id="#444461ff">
<path fill="#444461" opacity="1.00" d=" M 11.71 0.00 L 12.30 0.00 C 15.31 3.02 18.04 6.31 21.10 9.29 C 24.13 6.34 26.94 3.18 29.73 0.00 L 30.30 0.00 C 33.31 3.02 36.04 6.30 39.08 9.29 C 42.13 6.35 44.95 3.19 47.73 0.00 L 48.30 0.00 C 51.31 3.03 54.05 6.32 57.11 9.30 C 60.13 6.34 62.94 3.19 65.71 0.00 L 66.30 0.00 C 69.27 2.98 71.96 6.23 74.98 9.16 C 77.99 6.19 80.90 3.12 83.75 0.00 L 84.07 0.00 C 87.14 2.96 89.96 6.18 93.01 9.17 C 96.03 6.25 98.72 3.01 101.65 0.00 L 102.12 0.00 C 105.11 3.04 107.82 6.34 110.90 9.30 C 113.95 6.32 116.69 3.06 119.64 0.00 L 120.11 0.00 C 123.11 3.03 125.82 6.33 128.89 9.30 C 131.95 6.33 134.69 3.06 137.65 0.00 L 138.12 0.00 C 141.11 3.03 143.82 6.34 146.90 9.30 C 149.95 6.33 152.68 3.06 155.63 0.00 L 156.12 0.00 C 160.00 4.23 163.96 8.38 168.00 12.47 L 168.00 12.77 C 167.01 13.87 165.96 14.93 164.93 15.99 C 161.87 13.04 158.89 10.02 155.89 7.01 C 153.24 9.86 150.04 12.22 147.78 15.39 L 147.66 16.00 L 146.32 16.00 C 143.88 12.67 140.78 9.93 137.87 7.03 C 135.24 9.87 132.03 12.21 129.80 15.39 L 129.71 16.00 L 128.35 16.00 C 125.87 12.68 122.77 9.91 119.84 7.00 C 116.91 9.91 114.02 12.87 111.32 16.00 L 110.93 16.00 C 107.88 13.02 105.05 9.83 102.00 6.85 C 98.99 9.82 96.08 12.89 93.22 16.00 L 92.93 16.00 C 89.88 13.03 87.06 9.83 84.00 6.85 C 80.99 9.82 78.08 12.89 75.22 16.00 L 74.94 16.00 C 71.88 13.03 69.06 9.83 66.01 6.85 C 62.95 9.81 60.13 13.00 57.11 16.00 L 56.60 16.00 C 53.96 12.84 51.08 9.89 48.15 7.00 C 45.22 9.90 42.14 12.68 39.67 16.00 L 38.39 16.00 C 36.16 12.56 33.01 9.89 30.13 7.02 C 27.20 9.93 24.13 12.73 21.58 16.00 L 21.36 16.00 C 18.11 13.18 15.19 10.02 12.13 6.99 C 9.12 10.00 6.14 13.03 3.07 15.99 C 2.04 14.93 0.99 13.87 0.00 12.76 L 0.00 12.46 C 3.96 8.36 8.08 4.41 11.71 0.00 Z" />
</g>
</svg>
