<?xml version="1.0" encoding="UTF-8" ?>
<!DOCTYPE svg PUBLIC "-//W3C//DTD SVG 1.1//EN" "http://www.w3.org/Graphics/SVG/1.1/DTD/svg11.dtd">
<svg width="97pt" height="16pt" viewBox="0 0 97 16" version="1.1" xmlns="http://www.w3.org/2000/svg">
<g id="#fefefefe">
<path fill="#fefefe" opacity="1.00" d=" M 40.50 0.00 L 48.29 0.00 C 55.97 1.77 56.07 13.84 48.58 16.00 L 40.50 16.00 C 40.50 10.67 40.50 5.33 40.50 0.00 M 42.76 2.22 C 42.75 5.44 42.75 8.66 42.77 11.87 C 45.31 9.25 47.72 6.50 50.24 3.85 C 48.21 1.94 45.32 2.24 42.76 2.22 M 44.41 13.90 C 46.63 13.70 49.32 13.67 50.71 11.59 C 52.07 10.04 51.86 7.86 51.74 5.95 C 49.16 8.47 46.77 11.18 44.41 13.90 Z" />
<path fill="#fefefe" opacity="1.00" d=" M 54.97 0.00 L 65.00 0.00 C 65.00 0.56 65.00 1.68 65.00 2.24 C 63.67 2.25 62.34 2.25 61.01 2.25 L 60.97 3.23 C 62.31 3.24 63.65 3.25 65.00 3.25 L 65.00 5.49 C 63.66 5.50 62.33 5.50 60.99 5.51 C 61.01 9.01 61.00 12.50 61.00 16.00 L 59.00 16.00 C 59.00 12.50 59.00 9.00 58.99 5.50 C 57.66 5.50 56.33 5.50 55.00 5.50 L 55.00 3.25 C 56.34 3.25 57.68 3.24 59.02 3.24 L 59.00 2.25 C 57.67 2.25 56.35 2.25 55.02 2.25 C 55.01 1.69 54.98 0.56 54.97 0.00 Z" />
<path fill="#fefefe" opacity="1.00" d=" M 65.82 0.00 L 68.16 0.00 C 69.66 4.14 70.96 8.36 72.38 12.52 C 72.76 11.35 73.14 10.17 73.53 8.99 C 72.51 5.99 71.59 2.96 70.48 0.00 L 78.92 0.00 C 77.77 4.06 74.86 8.29 76.97 12.52 C 78.50 8.38 79.71 4.13 81.25 0.00 L 83.59 0.00 C 81.66 5.29 80.09 10.71 78.16 16.00 L 75.80 16.00 C 75.95 14.77 75.64 13.65 74.87 12.63 C 73.70 13.33 73.62 14.81 73.33 16.00 L 71.20 16.00 C 69.38 10.68 67.71 5.30 65.82 0.00 M 73.73 2.18 C 72.91 3.19 74.05 5.99 75.36 4.45 C 76.67 3.25 75.23 0.43 73.73 2.18 Z" />
<path fill="#fefefe" opacity="1.00" d=" M 87.85 0.00 L 91.33 0.00 C 94.13 0.86 96.19 3.19 97.00 5.97 L 97.00 9.88 C 96.25 12.70 94.24 15.06 91.44 16.00 L 87.86 16.00 C 80.41 13.93 80.42 2.08 87.85 0.00 M 87.01 13.02 C 89.42 10.35 91.88 7.73 94.27 5.03 C 92.73 3.37 90.49 1.48 88.11 2.66 C 83.77 4.18 83.40 10.42 87.01 13.02 M 89.69 14.02 C 92.67 13.29 94.61 10.88 95.18 7.94 C 93.21 9.83 91.30 11.80 89.69 14.02 Z" />
<path fill="#fefefe" opacity="1.00" d=" M 0.54 9.12 C 2.38 7.54 4.02 5.76 5.65 3.97 C 7.08 5.48 8.48 7.00 9.88 8.53 C 11.30 7.02 12.70 5.49 14.12 3.97 C 15.54 5.47 16.93 7.00 18.33 8.53 C 19.76 7.01 21.19 5.49 22.65 3.99 C 24.05 5.50 25.45 7.02 26.86 8.53 C 28.26 7.00 29.67 5.48 31.10 3.98 C 33.07 6.09 35.04 8.20 36.92 10.40 C 34.29 12.50 32.86 8.34 31.07 7.00 C 29.65 8.55 28.24 10.10 26.82 11.64 C 25.42 10.08 24.01 8.53 22.62 6.97 C 21.10 8.25 20.08 10.77 17.99 11.00 C 16.54 9.83 15.37 8.36 14.13 6.99 C 12.74 8.54 11.33 10.08 9.91 11.60 C 8.48 10.08 7.07 8.55 5.68 7.00 C 4.32 8.53 2.91 10.03 1.35 11.36 C 1.01 11.21 0.34 10.91 0.00 10.76 L 0.00 9.31 L 0.54 9.12 Z" />
</g>
</svg>
