<?xml version="1.0" encoding="UTF-8" ?>
<!DOCTYPE svg PUBLIC "-//W3C//DTD SVG 1.1//EN" "http://www.w3.org/Graphics/SVG/1.1/DTD/svg11.dtd">
<svg width="546pt" height="446pt" viewBox="0 0 546 446" version="1.1" xmlns="http://www.w3.org/2000/svg">
<g id="#ffffffff">
<path fill="#ffffff" opacity="1.00" d=" M 315.84 18.91 C 340.85 1.79 373.10 -3.46 402.56 2.75 C 416.23 5.89 429.32 11.45 441.15 18.97 C 448.33 23.78 454.72 29.61 460.81 35.71 C 467.47 33.43 474.53 32.64 481.20 30.38 C 496.42 25.31 511.49 19.50 525.38 11.40 C 527.13 10.24 529.07 9.41 531.10 8.87 C 530.97 14.56 527.80 19.43 525.60 24.48 C 521.50 33.28 516.05 41.40 509.63 48.67 C 506.55 52.86 502.72 56.42 498.60 59.56 C 494.21 63.56 489.38 67.10 484.12 69.87 C 497.34 68.28 510.40 65.45 523.05 61.30 C 530.96 59.53 537.96 54.97 546.00 53.71 L 546.00 54.79 C 541.19 64.23 533.56 71.80 526.96 79.98 C 515.87 91.69 503.91 102.57 490.85 112.08 C 491.52 136.44 490.45 160.93 485.62 184.87 C 482.50 199.47 479.20 214.09 474.09 228.15 C 470.61 238.68 466.27 248.91 462.03 259.16 C 456.82 271.71 449.93 283.45 443.16 295.20 C 437.03 305.80 430.00 315.84 422.41 325.44 C 416.11 332.81 410.57 340.84 403.54 347.56 C 398.91 353.48 393.61 358.94 387.69 363.59 C 358.78 390.89 324.15 412.12 286.82 425.81 C 273.02 431.38 258.42 434.53 244.02 438.13 C 205.68 446.32 165.88 448.04 127.03 442.56 C 107.69 440.27 88.71 435.57 70.21 429.57 C 56.41 424.54 42.39 419.81 29.51 412.63 C 19.40 407.61 9.52 402.16 0.00 396.08 L 0.00 394.29 C 5.34 394.52 10.61 395.62 15.96 395.55 C 25.54 395.43 35.16 395.89 44.69 394.78 C 82.94 391.85 120.41 378.75 152.12 357.15 C 156.29 354.12 160.38 350.97 164.90 348.47 C 153.59 349.02 142.48 346.18 131.70 343.08 C 97.95 332.08 70.28 304.09 59.97 270.09 C 71.83 271.18 83.80 272.48 95.69 270.85 C 100.50 270.25 105.19 268.98 110.03 268.57 C 99.78 266.72 90.03 262.79 80.81 258.03 C 67.42 251.63 56.64 241.14 46.62 230.43 C 41.47 223.76 36.35 216.94 32.99 209.16 C 25.11 192.91 20.71 174.91 21.10 156.81 C 25.31 157.41 28.84 159.91 32.71 161.47 C 44.61 167.24 57.88 169.31 70.90 170.82 C 62.44 165.64 55.39 158.59 48.55 151.49 C 42.91 144.01 37.17 136.45 33.32 127.85 C 16.71 94.50 18.00 52.73 37.13 20.68 C 43.39 24.84 46.50 32.05 51.97 37.04 C 60.86 45.52 68.86 55.00 78.85 62.24 C 89.82 71.78 101.83 80.00 113.77 88.23 C 128.01 97.22 143.07 104.79 158.33 111.85 C 169.84 116.71 181.42 121.51 193.52 124.74 C 217.67 132.06 242.69 136.67 267.91 137.80 C 267.23 132.20 266.02 126.66 266.00 120.99 C 264.93 112.60 265.98 104.15 266.96 95.81 C 268.26 82.60 273.09 69.99 279.38 58.40 C 286.14 47.27 293.28 35.82 303.88 27.91 C 307.53 24.49 311.73 21.75 315.84 18.91 Z" />
</g>
</svg>
