<?xml version="1.0" encoding="UTF-8" ?>
<!DOCTYPE svg PUBLIC "-//W3C//DTD SVG 1.1//EN" "http://www.w3.org/Graphics/SVG/1.1/DTD/svg11.dtd">
<svg width="294pt" height="548pt" viewBox="0 0 294 548" version="1.1" xmlns="http://www.w3.org/2000/svg">
<g id="#ffffffff">
<path fill="#ffffff" opacity="1.00" d=" M 216.22 0.00 L 216.71 0.00 C 228.82 0.40 240.97 0.40 253.03 1.75 C 266.71 3.17 280.40 4.64 294.00 6.72 L 294.00 91.62 C 279.66 91.61 265.32 91.54 250.98 91.61 C 242.54 91.99 233.91 92.49 225.97 95.69 C 218.32 98.21 210.97 102.51 206.17 109.13 C 198.08 118.81 195.16 131.68 194.87 144.05 C 194.71 165.63 194.93 187.21 194.79 208.78 C 226.48 208.56 258.17 208.94 289.86 208.66 C 284.95 242.04 279.35 275.31 274.68 308.72 C 248.05 308.45 221.41 308.68 194.78 308.59 C 194.88 388.39 194.78 468.20 194.83 548.00 L 87.18 548.00 C 87.21 468.19 87.10 388.38 87.24 308.57 C 58.16 308.69 29.08 308.54 0.00 308.61 L 0.00 210.00 L 0.49 208.82 C 29.39 208.49 58.30 208.97 87.21 208.70 C 87.20 182.86 87.09 157.02 87.24 131.18 C 87.46 105.91 92.28 80.11 105.03 58.03 C 107.63 52.55 111.61 47.92 114.85 42.83 C 124.27 32.12 135.09 22.40 147.85 15.82 C 168.60 4.14 192.70 0.58 216.22 0.00 Z" />
</g>
</svg>
